<svg xmlns="http://www.w3.org/2000/svg" xmlns:xlink="http://www.w3.org/1999/xlink" id="Layer_1" width="1008" height="229.576" x="0" y="0" enable-background="new 0 0 1008 229.576" version="1.1" viewBox="0 0 1008 229.576" xml:space="preserve"><linearGradient id="SVGID_1_" x1="167.672" x2="89.676" y1="11.378" y2="158.372" gradientUnits="userSpaceOnUse"><stop offset="0" style="stop-color:#0896f7"/><stop offset=".995" style="stop-color:#f3f7ff"/></linearGradient><path fill="url(#SVGID_1_)" fill-rule="evenodd" stroke="#CADDFF" stroke-miterlimit="10" d="M54.054,141.92	c6.46,0,12.4,0.064,18.338-0.037c1.87-0.033,2.454,1.342,3.342,2.409c20.372,24.48,57.355,23.726,76.442-1.583	c3.896-5.166,6.556-10.92,8.183-17.185c0.497-1.916,0.098-2.551-1.976-2.533c-13.769,0.121-27.54,0.176-41.311,0.174	c-14.208-0.001-28.416-0.101-42.624-0.138c-7.71-0.021-15.424-0.125-23.127,0.076c-2.641,0.069-3.355-0.809-3.576-3.292	c-2.669-30.04,15.486-61.755,50.001-69.958c23.556-5.598,44.166,0.221,61.611,16.98c2.025,1.948,4,2.781,6.814,2.666	c5.666-0.229,11.348-0.068,17.573-0.068c-3.903-7.026-8.531-12.738-14.154-17.549c-24.624-21.071-52.659-27.624-83.386-17.025	c-31.125,10.736-49.787,33.369-55.359,65.724c-8.161,47.391,26.704,90.721,72.184,96.09c38.533,4.549,74.585-16.99,88.505-53.124	c0.91-2.362,2.034-3,4.354-2.903c3.919,0.165,7.859,0.186,11.777-0.008c2.498-0.123,2.674,0.719,2.055,2.835	c-4.841,16.533-13.653,30.68-25.952,42.602c-54.81,53.126-145.886,29.056-167.413-44.188C-0.547,84.374,36.941,24.051,95.848,14.259	c25.048-4.164,48.778-0.078,70.38,13.518c13.202,8.31,24.114,19.123,32.541,32.466c4.65,7.361,8.213,15.076,10.826,23.313	c0.68,2.146,0.509,3.097-2.225,3.076c-17.056-0.121-34.113-0.107-51.167,0.003c-2.255,0.015-3.429-1.008-4.686-2.564	c-8.205-10.145-18.42-16.739-31.625-18.598C95.791,62.084,72.4,77.771,66.628,101.396c-0.536,2.196-0.35,2.979,2.136,2.967	c10.19-0.043,20.382,0.14,30.573,0.131c16.938-0.015,33.877-0.143,50.815-0.163c8.569-0.01,17.14,0.131,25.71,0.162	c1.485,0.005,2.7,0.13,2.795,2.019c0.293,5.777,1.7,11.628,0.334,17.324c-5.739,23.946-18.431,42.355-42.292,51.413	c-30.711,11.657-65.629-1.132-80.756-29.475C55.371,144.702,54.87,143.591,54.054,141.92z" clip-rule="evenodd"/><path fill="#1DAEFF" d="M293.404,152.195c-7.04,3.883-13.98,5.823-20.821,5.823c-10.856,0-20.216-3.815-28.075-11.447	c-7.862-7.631-11.792-16.842-11.792-27.631c0-10.329,4.144-19.144,12.434-26.446c7.958-7.039,17.169-10.559,27.63-10.559	c4.209,0,7.762,0.362,10.657,1.086c2.63,0.658,5.954,1.974,9.967,3.946l-7.401,8.586c-2.369-1.448-7.007-2.171-13.915-2.171	c-6.907,0-13.043,2.55-18.403,7.648c-5.362,5.098-8.043,11.101-8.043,18.009c0,7.435,2.565,13.814,7.697,19.144	c5.132,5.329,11.38,7.994,18.749,7.994c6.315,0,10.954-1.35,13.915-4.047L293.404,152.195z"/><path fill="#1DAEFF" d="M330.703,105.815c-2.105-6.841-8.027-10.13-17.762-9.867v31.183l0.1,29.21h-12.928V83.416h14.9	c9.013,0,15.952,1.941,20.822,5.822c5.788,5,8.814,12.105,9.078,21.314c-0.263,6.844-2.5,12.37-6.71,16.579l-4.736,4.736	l17.368,24.474h-15.591l-20.329-29.21c7.896-1.052,13.026-4.604,15.394-10.659C331.888,112.79,332.018,109.238,330.703,105.815z"/><path fill="#1DAEFF" d="M420.898,83.416l-24.967,41.347v31.578h-12.928v-31.578l-24.965-41.347h14.801l16.579,27.728l16.777-27.728	H420.898z"/><path fill="#1DAEFF" d="M471.322,107.395c0.395,6.843-0.395,11.842-2.367,15c-1.974,3.157-5.724,6.184-11.251,9.078	c-5.264,1.579-10.791,2.368-16.578,2.368l0.099,22.5h-13.124l0.197-72.925h13.321c5.986-0.592,11.348-0.1,16.085,1.479	c5.789,2.633,9.538,5.592,11.251,8.882C470.664,97.068,471.453,101.607,471.322,107.395z M459.678,108.974	c-0.526-8.421-5.264-13.157-14.209-14.209h-4.342v26.446h4.737C455.072,120.421,459.678,116.343,459.678,108.974z"/><path fill="#1DAEFF" d="M520.959,94.764l-14.703,0.295v61.282h-12.829V95.059l-15.098-0.295l0.395-11.448h42.235V94.764z"/><path fill="#1DAEFF" d="M607.105,119.829c0,10.657-3.946,19.686-11.842,27.087c-7.896,7.402-17.204,11.103-27.927,11.103	c-10.789,0-20.099-3.668-27.926-11.004c-7.83-7.335-11.743-16.396-11.743-27.186c0-10.658,3.979-19.704,11.94-27.139	c7.761-7.168,17.004-10.755,27.729-10.755c10.723,0,19.999,3.587,27.828,10.755C603.125,100.125,607.105,109.171,607.105,119.829z M594.178,119.829c0-7.368-2.613-13.585-7.845-18.652c-5.229-5.064-11.563-7.597-18.996-7.597c-7.435,0-13.766,2.515-18.995,7.548	c-5.23,5.034-7.846,11.267-7.846,18.701c0,7.302,2.647,13.486,7.945,18.551c5.294,5.067,11.595,7.599,18.896,7.599	c7.303,0,13.603-2.549,18.898-7.647C591.529,133.232,594.178,127.066,594.178,119.829z"/><path fill="#1DAEFF" d="M690.42,134.361c0,6.381-2.518,11.891-7.55,16.527c-5.032,4.639-10.772,6.959-17.219,6.959	c-6.908,0-12.698-2.007-17.369-6.021c-3.156-2.894-6.053-5.657-8.684-8.289l8.289-8.289c5,6.053,11.085,9.572,18.256,10.559	c3.355,0,6.085-1.135,8.19-3.404s3.158-5.082,3.158-8.438c0-4.012-2.862-7.368-8.585-10.065c-5.329-2.499-10.658-4.966-15.986-7.401	c-5.724-3.75-8.585-8.945-8.585-15.59c0-5.855,2.498-10.624,7.499-14.31c4.539-3.289,9.802-4.934,15.79-4.934	c8.945,0,15.655,2.599,20.129,7.794l-7.498,8.685c-4.146-3.157-8.486-4.736-13.025-4.736c-2.437,0-4.64,0.658-6.612,1.973	c-2.238,1.447-3.354,3.355-3.354,5.724c0,2.895,1.742,5.264,5.229,7.104c0.396,0.197,3.321,1.284,8.782,3.258	c3.486,1.249,6.744,2.959,9.771,5.131c3.684,2.631,6.117,5.328,7.304,8.092c0.458,0.986,0.95,2.632,1.479,4.934	C690.223,131.27,690.42,132.849,690.42,134.361z"/><path fill="#1DAEFF" d="M731.765,156.17h-34.833V83.245l34.833-0.1l0.296,13.026h-22.104v14.999h20.525v12.631h-20.525v18.945	h22.104L731.765,156.17z"/><path fill="#1DAEFF" d="M773.704,156.17H738.87V83.245l34.834-0.1L774,96.171h-22.104v14.999h20.526v12.631h-20.526v18.945H774	L773.704,156.17z"/><path fill="#1DAEFF" d="M840.016,118.769c0,11.909-4.014,21.252-12.039,28.025c-7.565,6.252-17.435,9.376-29.604,9.376h-17.86	V83.245h16.974c11.841,0,21.675,2.896,29.504,8.684C835.674,98.376,840.016,107.322,840.016,118.769z M826.989,119.558	c0-16.445-11.184-24.669-33.551-24.669v49.637h3.552c8.686,0,15.691-1.94,21.021-5.822	C823.996,134.361,826.989,127.979,826.989,119.558z"/><path fill="#1DAEFF" d="M882.35,156.17h-34.834V83.245l34.834-0.1l0.295,13.026h-22.104v14.999h20.525v12.631h-20.525v18.945h22.104	L882.35,156.17z"/><path fill="#1DAEFF" d="M920.438,105.645c-2.105-6.841-8.027-10.131-17.763-9.868v31.184l0.1,29.21h-12.928V83.245h14.901	c9.012,0,15.952,1.941,20.821,5.821c5.788,5.001,8.814,12.106,9.077,21.315c-0.263,6.843-2.5,12.37-6.709,16.579l-4.736,4.736	l17.367,24.474h-15.591l-20.329-29.21c7.896-1.052,13.026-4.604,15.395-10.658C921.623,112.619,921.753,109.067,920.438,105.645z"/><path fill="#1DAEFF" d="M998.199,134.361c0,6.381-2.518,11.891-7.549,16.527c-5.033,4.639-10.774,6.959-17.22,6.959	c-6.908,0-12.697-2.007-17.368-6.021c-3.157-2.894-6.053-5.657-8.684-8.289l8.289-8.289c4.998,6.053,11.083,9.572,18.255,10.559	c3.355,0,6.085-1.135,8.191-3.404c2.104-2.27,3.157-5.082,3.157-8.438c0-4.012-2.861-7.368-8.585-10.065	c-5.328-2.499-10.656-4.966-15.986-7.401c-5.724-3.75-8.585-8.945-8.585-15.59c0-5.855,2.499-10.624,7.5-14.31	c4.538-3.289,9.802-4.934,15.789-4.934c8.946,0,15.655,2.599,20.13,7.794l-7.499,8.685c-4.146-3.157-8.485-4.736-13.025-4.736	c-2.436,0-4.639,0.658-6.611,1.973c-2.239,1.447-3.355,3.355-3.355,5.724c0,2.895,1.742,5.264,5.229,7.104	c0.395,0.197,3.321,1.284,8.782,3.258c3.487,1.249,6.743,2.959,9.77,5.131c3.685,2.631,6.118,5.328,7.304,8.092	c0.458,0.986,0.952,2.632,1.479,4.934C998.002,131.27,998.199,132.849,998.199,134.361z"/></svg>